#!OML:ASF F:\VICON\USERDATA\INSTALL\rory3\rory3.ASF
:FULLY-SPECIFIED
:DEGREES
143
root 0.906422 18.1367 -3.14088 -2.51242 -1.26435 -1.9255
lowerback 11.3069 0.966258 0.00562015
upperback 0.154531 1.35617 1.1098
thorax -6.21376 0.681728 0.938791
lowerneck -17.8935 -3.11121 -1.30457
upperneck 21.6598 -4.02973 0.227467
head 9.86746 -1.94646 -0.253236
rclavicle -4.19622e-015 5.96354e-016
rhumerus -26.2086 -25.0895 -77.2267
rradius 27.5341
rwrist 3.77196
rhand -18.0901 23.4669
rfingers 7.12502
rthumb 8.18334 -6.35463
lclavicle -4.19622e-015 5.96354e-016
lhumerus -34.5649 2.5093 82.7021
lradius 23.3266
lwrist 7.66573
lhand -26.1086 18.0243
lfingers 7.12502
lthumb 0.440846 48.0036
rfemur -10.3426 -0.438213 23.8973
rtibia 67.2569
rfoot -0.326661 -3.61375
rtoes 4.05319
lfemur -16.7096 -2.55748 -21.9297
ltibia 27.8566
lfoot -6.15663 -0.986173
ltoes 2.11752
144
root 0.914332 18.1354 -2.99086 -2.58855 -1.11664 -1.88156
lowerback 11.6836 0.839138 -0.08452
upperback -0.0218873 1.18416 1.18184
thorax -6.61338 0.602123 1.0886
lowerneck -17.4392 -3.06214 -1.47007
upperneck 21.6768 -3.90917 0.17799
head 9.79066 -1.91287 -0.219195
rclavicle -1.90336e-014 -3.18055e-015
rhumerus -26.8164 -25.0583 -76.9199
rradius 27.4421
rwrist 4.01781
rhand -17.7157 23.9549
rfingers 7.12502
rthumb 8.54473 -5.85225
lclavicle -1.90336e-014 -3.18055e-015
lhumerus -34.5974 2.27339 82.7913
lradius 23.361
lwrist 7.89614
lhand -26.3335 19.451
lfingers 7.12502
lthumb 0.223596 49.4306
rfemur -11.7703 -0.755785 23.7651
rtibia 68.4917
rfoot -0.789135 -3.80763
rtoes 3.15441
lfemur -16.1427 -2.41286 -22.0686
ltibia 27.9172
lfoot -6.70299 -1.08036
ltoes 2.60621
145
root 0.922464 18.1446 -2.82889 -2.68396 -1.21152 -1.88298
lowerback 11.6815 0.854425 -0.142343
upperback 0.0867411 1.19788 1.22037
thorax -6.49931 0.610814 1.15997
lowerneck -17.5135 -3.02961 -1.43553
upperneck 21.8114 -3.85534 0.103026
head 9.8494 -1.89295 -0.246375
rclavicle 1.35919e-014 4.27387e-015
rhumerus -26.9323 -25.3528 -76.8136
rradius 27.2311
rwrist 4.2674
rhand -17.6241 24.177
rfingers 7.12502
rthumb 8.6331 -5.62648
lclavicle 1.35919e-014 4.27387e-015
lhumerus -34.2849 1.9947 82.8515
lradius 23.6875
lwrist 7.9143
lhand -26.263 21.3857
lfingers 7.12502
lthumb 0.291708 51.3652
rfemur -13.0645 -0.879071 23.6918
rtibia 69.4922
rfoot -1.2483 -3.82477
rtoes 1.37152
lfemur -15.4676 -2.26373 -22.1196
ltibia 28.0203
lfoot -7.37273 -0.922339
ltoes 2.39865
146
root 0.92806 18.1455 -2.66309 -2.723 -0.985863 -1.7893
lowerback 11.5459 0.814007 -0.302806
upperback 0.221739 1.12288 1.25613
thorax -6.28205 0.578748 1.30299
lowerneck -17.7519 -3.05195 -1.42475
upperneck 22.0428 -3.86004 -0.00980236
head 9.9737 -1.90536 -0.294765
rclavicle -1.88224e-014 -1.19271e-015
rhumerus -26.9043 -26.1096 -76.538
rradius 26.7515
rwrist 4.69134
rhand -17.8793 24.1821
rfingers 7.12502
rthumb 8.38678 -5.63137
lclavicle -1.88224e-014 -1.19271e-015
lhumerus -33.9593 1.82972 82.8835
lradius 24.0769
lwrist 8.09443
lhand -26.392 20.8204
lfingers 7.12502
lthumb 0.16714 50.8
rfemur -14.3722 -1.27646 23.5153
rtibia 70.3157
rfoot -1.83382 -3.80472
rtoes 0.289915
lfemur -14.8118 -2.34122 -22.2819
ltibia 28.0799
lfoot -7.9717 -0.791263
ltoes 1.11746
147
root 0.931109 18.1455 -2.50683 -2.73915 -0.416283 -1.59792
lowerback 11.6427 0.607671 -0.58355
upperback 0.163338 0.813842 1.286
thorax -6.39463 0.43715 1.5445
lowerneck -17.4841 -3.02352 -1.46365
upperneck 22.057 -3.79282 -0.0938079
head 9.92724 -1.88888 -0.304074
rclavicle -1.35422e-014 3.37934e-015
rhumerus -27.2618 -26.3774 -76.2352
rradius 26.516
rwrist 4.80891
rhand -17.9745 23.7459
rfingers 7.12502
rthumb 8.29497 -6.0712
lclavicle -1.35422e-014 3.37934e-015
lhumerus -33.8746 1.71513 82.901
lradius 24.1681
lwrist 8.70131
lhand -26.7941 18.6804
lfingers 7.12502
lthumb -0.221238 48.66
rfemur -15.6203 -1.96445 23.2386
rtibia 70.9528
rfoot -2.42148 -3.7535
rtoes -0.628522
lfemur -14.1564 -2.56912 -22.5536
ltibia 28.0485
lfoot -8.24389 -0.877905
ltoes 0.807668
